# xmcd CD database file
#
# Track frame offsets:
#	150
#	18607
#	32261
#
# Disc length: 646 seconds
#
# Revision: 1
# Processed by: cddbd v1.5.1PL2 Copyright (c) Steve Scherf et al.
# Submitted via: CDex 1.51
#
DISCID=17028403
DTITLE=SLOTH LOVE CHUNKS - Loveless ideals
DYEAR=2005
DGENRE=Punk Rock
TTITLE0=Loveless ideals
TTITLE1=ナッシュピル
TTITLE2=四角いVISION
EXTD=YEAR: 2005
EXTT0=
EXTT1=
EXTT2=
PLAYORDER=
